<svg width="512" height="512" viewBox="0 0 512 512" fill="none" xmlns="http://www.w3.org/2000/svg">
  <rect width="512" height="512" rx="128" fill="url(#paint_linear)"/>
  <path d="M256 128C185.3 128 128 185.3 128 256C128 288.6 140.2 318.5 160.4 341.5L144 384L186.5 367.6C207.5 378.2 230.9 384 256 384C326.7 384 384 326.7 384 256C384 185.3 326.7 128 256 128Z" fill="white" fill-opacity="0.1"/>
  <path d="M256 144C194.1 144 144 194.1 144 256C144 285.4 155.3 312.2 173.8 332.6L160 368L195.4 354.2C213.8 366.7 234.3 368 256 368C317.9 368 368 317.9 368 256C368 194.1 317.9 144 256 144Z" stroke="white" stroke-width="24" stroke-linejoin="round"/>
  <!-- Network Nodes -->
  <circle cx="216" cy="224" r="28" fill="white"/>
  <circle cx="296" cy="224" r="28" fill="white"/>
  <circle cx="256" cy="296" r="28" fill="white"/>
  <!-- Lines -->
  <path d="M236 244L246 276" stroke="white" stroke-width="12" stroke-linecap="round"/>
  <path d="M276 244L266 276" stroke="white" stroke-width="12" stroke-linecap="round"/>
  <path d="M236 224H276" stroke="white" stroke-width="12" stroke-linecap="round"/>
  <defs>
    <linearGradient id="paint_linear" x1="0" y1="0" x2="512" y2="512" gradientUnits="userSpaceOnUse">
      <stop stop-color="#6366f1"/>
      <stop offset="1" stop-color="#a855f7"/>
    </linearGradient>
  </defs>
</svg>
